<?xml version="1.0" standalone="no"?>
<!DOCTYPE svg PUBLIC "-//W3C//DTD SVG 20010904//EN"
 "http://www.w3.org/TR/2001/REC-SVG-20010904/DTD/svg10.dtd">
<svg version="1.0" xmlns="http://www.w3.org/2000/svg"
 width="192.000000pt" height="144.000000pt" viewBox="0 0 192.000000 144.000000"
 preserveAspectRatio="xMidYMid meet">

<g transform="translate(0.000000,144.000000) scale(0.100000,-0.100000)"
fill="#000000" stroke="none">
<path d="M831 1429 c-152 -30 -262 -89 -376 -204 -99 -98 -146 -175 -185 -300
-100 -325 59 -690 365 -841 121 -59 197 -77 325 -77 398 -1 713 314 714 713 0
128 -18 202 -78 325 -97 198 -283 339 -502 381 -83 15 -194 17 -263 3z m92
-20 c23 -1 27 -3 12 -7 -12 -4 9 -10 55 -18 l75 -11 -85 0 c-47 0 -110 -3
-140 -7 -70 -10 -62 0 11 13 l54 10 -52 -3 c-29 -2 -53 0 -53 3 0 10 62 29 78
25 8 -2 28 -5 45 -5z m64 -5 c-3 -3 -12 -4 -19 -1 -8 3 -5 6 6 6 11 1 17 -2
13 -5z m43 -59 c63 -7 98 -22 53 -23 -15 0 -45 -4 -66 -8 -24 -4 -43 -2 -52 6
-10 8 -15 9 -15 2 0 -7 -19 -10 -50 -8 -27 1 -51 0 -52 -4 -2 -4 -11 1 -21 11
-18 17 -17 18 35 26 53 9 66 9 168 -2z m-40 -76 c0 -5 -24 -9 -52 -9 -29 0
-64 -3 -78 -6 -18 -5 -22 -4 -15 4 15 16 145 25 145 11z m37 -5 c-3 -3 -12 -4
-19 -1 -8 3 -5 6 6 6 11 1 17 -2 13 -5z m-7 -34 c0 -5 10 -10 23 -10 31 0 54
-15 34 -23 -8 -3 -19 -1 -25 5 -7 7 -16 7 -29 -1 -16 -9 -16 -10 7 -11 14 -1
34 -5 45 -10 12 -4 -21 -7 -80 -5 -89 2 -92 2 -30 -4 l70 -7 -61 -2 c-33 -1
-65 -7 -70 -12 -7 -7 -19 -7 -35 -1 -21 9 -22 10 -4 11 15 0 12 5 -14 17 -19
9 -29 19 -23 21 6 2 9 9 6 17 -6 15 23 21 124 23 36 1 62 -2 62 -8z m47 -76
c-3 -3 -12 -4 -19 -1 -8 3 -5 6 6 6 11 1 17 -2 13 -5z m-17 -15 c22 -8 21 -8
-7 -4 -18 2 -33 0 -33 -5 0 -6 10 -10 23 -10 23 0 71 -28 52 -30 -5 -1 -1 -6
10 -11 17 -8 17 -9 -5 -4 -84 19 -135 23 -189 15 -33 -5 -65 -11 -71 -15 -6
-4 -7 0 -4 10 4 9 13 14 20 11 8 -3 13 0 11 6 -3 15 36 26 98 27 36 1 46 4 35
11 -12 8 -10 10 10 9 14 -1 36 -5 50 -10z m13 -125 c61 -21 132 -84 164 -148
22 -41 27 -65 27 -126 1 -121 -55 -214 -159 -265 -116 -57 -235 -40 -331 47
-163 150 -108 418 103 494 52 18 140 17 196 -2z m-75 -601 c-10 -2 -28 -2 -40
0 -13 2 -5 4 17 4 22 1 32 -1 23 -4z m-58 -29 c36 -3 90 -2 120 4 30 6 57 9
58 7 2 -2 -9 -11 -25 -20 l-28 -16 28 6 c15 3 27 1 27 -5 0 -5 -6 -10 -12 -10
-9 0 -8 -4 2 -10 13 -9 13 -10 0 -10 -12 0 -12 -2 -2 -9 10 -6 9 -10 -7 -14
-12 -3 -21 -10 -21 -16 0 -6 7 -8 15 -5 18 7 20 -12 3 -20 -10 -5 -10 -7 0
-12 20 -9 14 -23 -8 -19 -11 2 -18 0 -15 -6 4 -5 -4 -10 -17 -10 -17 -1 -18
-3 -5 -6 32 -8 17 -23 -23 -23 -22 0 -40 -4 -40 -9 0 -6 -10 -7 -22 -4 -13 3
-40 7 -60 7 -21 1 -38 4 -38 9 0 4 -9 7 -19 7 -22 0 -40 20 -19 21 7 0 2 5
-12 11 -14 6 -28 11 -32 10 -3 -1 -9 6 -12 14 -5 12 -2 15 10 10 8 -3 20 -6
25 -6 6 0 7 -5 3 -12 -5 -7 -3 -8 5 -4 7 5 10 14 7 22 -3 7 -1 16 4 19 16 10
12 21 -12 33 -21 11 -21 11 7 6 27 -4 26 -3 -8 12 -28 12 -35 19 -25 25 10 7
10 9 1 9 -7 0 -13 4 -13 10 0 6 9 6 26 0 36 -14 41 -12 18 6 -18 14 -17 15 16
9 19 -3 64 -8 100 -11z m-120 -88 c0 -3 -4 -8 -10 -11 -5 -3 -10 -1 -10 4 0 6
5 11 10 11 6 0 10 -2 10 -4z m220 -141 c22 -5 23 -4 5 5 -19 9 -18 9 4 7 27
-2 37 -32 19 -54 -21 -26 -268 -9 -268 18 0 5 10 9 23 9 16 0 19 3 8 9 -11 7
-10 10 5 13 23 6 168 0 204 -7z m-60 -74 l95 -6 -62 -9 c-35 -4 -63 -12 -63
-17 0 -5 -12 -9 -27 -8 l-28 1 25 8 c31 9 16 16 -55 24 -61 8 -80 22 -22 17
23 -2 85 -6 137 -10z"/>
<path d="M983 1323 c9 -2 23 -2 30 0 6 3 -1 5 -18 5 -16 0 -22 -2 -12 -5z"/>
<path d="M1058 1093 c7 -3 16 -2 19 1 4 3 -2 6 -13 5 -11 0 -14 -3 -6 -6z"/>
<path d="M945 750 c-8 -14 3 -30 21 -30 8 0 14 9 14 20 0 21 -24 28 -35 10z"/>
<path d="M848 213 c6 -2 18 -2 25 0 6 3 1 5 -13 5 -14 0 -19 -2 -12 -5z"/>
<path d="M960 210 l-55 -7 58 -1 c32 -1 57 2 57 8 0 6 -1 9 -2 8 -2 -1 -28 -4
-58 -8z"/>
</g>
</svg>
